<mxfile host="Electron" agent="Mozilla/5.0 (Windows NT 10.0; Win64; x64) AppleWebKit/537.36 (KHTML, like Gecko) draw.io/24.7.17 Chrome/128.0.6613.36 Electron/32.0.1 Safari/537.36" version="24.7.17">
  <diagram name="Страница — 1" id="HYiYlm4sj4NgRQmNU5K9">
    <mxGraphModel dx="2015" dy="1368" grid="0" gridSize="10" guides="1" tooltips="1" connect="1" arrows="1" fold="1" page="0" pageScale="1" pageWidth="827" pageHeight="1169" math="0" shadow="0">
      <root>
        <mxCell id="0" />
        <mxCell id="1" parent="0" />
        <mxCell id="DC1aYd3tUmK3nC-rhCci-20" value="&lt;div style=&quot;&quot;&gt;&lt;b style=&quot;text-align: center;&quot;&gt;Backend&lt;/b&gt;&lt;br&gt;&lt;/div&gt;" style="html=1;dropTarget=0;whiteSpace=wrap;align=right;" vertex="1" parent="1">
          <mxGeometry x="291" y="-349" width="865" height="585" as="geometry" />
        </mxCell>
        <mxCell id="DC1aYd3tUmK3nC-rhCci-21" value="" style="shape=module;jettyWidth=8;jettyHeight=4;" vertex="1" parent="DC1aYd3tUmK3nC-rhCci-20">
          <mxGeometry x="1" width="20" height="20" relative="1" as="geometry">
            <mxPoint x="-27" y="7" as="offset" />
          </mxGeometry>
        </mxCell>
        <mxCell id="DC1aYd3tUmK3nC-rhCci-22" value="&lt;div style=&quot;&quot;&gt;&lt;b style=&quot;background-color: initial;&quot;&gt;Frontend&lt;/b&gt;&lt;/div&gt;" style="html=1;dropTarget=0;whiteSpace=wrap;align=left;" vertex="1" parent="1">
          <mxGeometry x="-380" y="14" width="354" height="183" as="geometry" />
        </mxCell>
        <mxCell id="DC1aYd3tUmK3nC-rhCci-23" value="" style="shape=module;jettyWidth=8;jettyHeight=4;" vertex="1" parent="DC1aYd3tUmK3nC-rhCci-22">
          <mxGeometry x="1" width="20" height="20" relative="1" as="geometry">
            <mxPoint x="-27" y="7" as="offset" />
          </mxGeometry>
        </mxCell>
        <mxCell id="DC1aYd3tUmK3nC-rhCci-24" value="&lt;b&gt;iOS app&lt;/b&gt;" style="html=1;dropTarget=0;whiteSpace=wrap;" vertex="1" parent="1">
          <mxGeometry x="-284" y="53" width="180" height="90" as="geometry" />
        </mxCell>
        <mxCell id="DC1aYd3tUmK3nC-rhCci-25" value="" style="shape=module;jettyWidth=8;jettyHeight=4;" vertex="1" parent="DC1aYd3tUmK3nC-rhCci-24">
          <mxGeometry x="1" width="20" height="20" relative="1" as="geometry">
            <mxPoint x="-27" y="7" as="offset" />
          </mxGeometry>
        </mxCell>
        <mxCell id="DC1aYd3tUmK3nC-rhCci-26" value="" style="endArrow=open;html=1;rounded=0;exitX=0;exitY=0.5;exitDx=0;exitDy=0;dashed=1;endFill=0;entryX=1;entryY=0.5;entryDx=0;entryDy=0;" edge="1" parent="1" source="DC1aYd3tUmK3nC-rhCci-43" target="DC1aYd3tUmK3nC-rhCci-24">
          <mxGeometry width="50" height="50" relative="1" as="geometry">
            <mxPoint x="-449" y="-39" as="sourcePoint" />
            <mxPoint x="-175" y="-140" as="targetPoint" />
          </mxGeometry>
        </mxCell>
        <mxCell id="DC1aYd3tUmK3nC-rhCci-27" value="&lt;div&gt;&lt;b&gt;&amp;lt;&amp;lt;service&amp;gt;&amp;gt;&lt;/b&gt;&lt;b&gt;&lt;br&gt;&lt;/b&gt;&lt;/div&gt;&lt;b&gt;Gateway&lt;/b&gt;" style="html=1;dropTarget=0;whiteSpace=wrap;" vertex="1" parent="1">
          <mxGeometry x="329" y="51" width="180" height="90" as="geometry" />
        </mxCell>
        <mxCell id="DC1aYd3tUmK3nC-rhCci-28" value="" style="shape=module;jettyWidth=8;jettyHeight=4;" vertex="1" parent="DC1aYd3tUmK3nC-rhCci-27">
          <mxGeometry x="1" width="20" height="20" relative="1" as="geometry">
            <mxPoint x="-27" y="7" as="offset" />
          </mxGeometry>
        </mxCell>
        <mxCell id="DC1aYd3tUmK3nC-rhCci-29" value="" style="endArrow=halfCircle;html=1;rounded=0;endFill=0;exitX=1;exitY=0.5;exitDx=0;exitDy=0;" edge="1" parent="1" source="DC1aYd3tUmK3nC-rhCci-43">
          <mxGeometry width="50" height="50" relative="1" as="geometry">
            <mxPoint x="185" y="96" as="sourcePoint" />
            <mxPoint x="236" y="96" as="targetPoint" />
          </mxGeometry>
        </mxCell>
        <mxCell id="DC1aYd3tUmK3nC-rhCci-30" value="" style="endArrow=circle;html=1;rounded=0;endFill=0;exitX=0;exitY=0.5;exitDx=0;exitDy=0;" edge="1" parent="1" source="DC1aYd3tUmK3nC-rhCci-31">
          <mxGeometry width="50" height="50" relative="1" as="geometry">
            <mxPoint x="268" y="90" as="sourcePoint" />
            <mxPoint x="236" y="96" as="targetPoint" />
          </mxGeometry>
        </mxCell>
        <mxCell id="DC1aYd3tUmK3nC-rhCci-31" value="" style="fontStyle=0;labelPosition=right;verticalLabelPosition=middle;align=left;verticalAlign=middle;spacingLeft=2;html=1;" vertex="1" parent="1">
          <mxGeometry x="277" y="87" width="20" height="18" as="geometry" />
        </mxCell>
        <mxCell id="DC1aYd3tUmK3nC-rhCci-32" value="" style="endArrow=open;html=1;rounded=0;exitX=1;exitY=0.5;exitDx=0;exitDy=0;entryX=0;entryY=0.5;entryDx=0;entryDy=0;dashed=1;endFill=0;" edge="1" parent="1" source="DC1aYd3tUmK3nC-rhCci-31" target="DC1aYd3tUmK3nC-rhCci-27">
          <mxGeometry width="50" height="50" relative="1" as="geometry">
            <mxPoint x="295" y="141" as="sourcePoint" />
            <mxPoint x="327" y="141" as="targetPoint" />
          </mxGeometry>
        </mxCell>
        <mxCell id="DC1aYd3tUmK3nC-rhCci-33" value="&lt;div&gt;&lt;b&gt;&amp;lt;&amp;lt;service&amp;gt;&amp;gt;&lt;/b&gt;&lt;/div&gt;&lt;b&gt;Core&lt;/b&gt;" style="html=1;dropTarget=0;whiteSpace=wrap;" vertex="1" parent="1">
          <mxGeometry x="329" y="-135" width="180" height="90" as="geometry" />
        </mxCell>
        <mxCell id="DC1aYd3tUmK3nC-rhCci-34" value="" style="shape=module;jettyWidth=8;jettyHeight=4;" vertex="1" parent="DC1aYd3tUmK3nC-rhCci-33">
          <mxGeometry x="1" width="20" height="20" relative="1" as="geometry">
            <mxPoint x="-27" y="7" as="offset" />
          </mxGeometry>
        </mxCell>
        <mxCell id="DC1aYd3tUmK3nC-rhCci-35" value="" style="endArrow=circle;html=1;rounded=0;endFill=0;exitX=0.5;exitY=1;exitDx=0;exitDy=0;" edge="1" parent="1" source="DC1aYd3tUmK3nC-rhCci-33">
          <mxGeometry width="50" height="50" relative="1" as="geometry">
            <mxPoint x="418.74" y="-11" as="sourcePoint" />
            <mxPoint x="419" y="18" as="targetPoint" />
          </mxGeometry>
        </mxCell>
        <mxCell id="DC1aYd3tUmK3nC-rhCci-36" value="" style="endArrow=halfCircle;html=1;rounded=0;exitX=0.5;exitY=0;exitDx=0;exitDy=0;endFill=0;" edge="1" parent="1" source="DC1aYd3tUmK3nC-rhCci-27">
          <mxGeometry width="50" height="50" relative="1" as="geometry">
            <mxPoint x="418.74" y="58" as="sourcePoint" />
            <mxPoint x="418.74" y="13" as="targetPoint" />
          </mxGeometry>
        </mxCell>
        <mxCell id="DC1aYd3tUmK3nC-rhCci-37" value="&lt;b&gt;&amp;lt;&amp;lt;service&amp;gt;&amp;gt;&lt;/b&gt;&lt;div&gt;&lt;b&gt;Notifications&lt;/b&gt;&lt;/div&gt;" style="html=1;dropTarget=0;whiteSpace=wrap;" vertex="1" parent="1">
          <mxGeometry x="634" y="-135" width="180" height="90" as="geometry" />
        </mxCell>
        <mxCell id="DC1aYd3tUmK3nC-rhCci-38" value="" style="shape=module;jettyWidth=8;jettyHeight=4;" vertex="1" parent="DC1aYd3tUmK3nC-rhCci-37">
          <mxGeometry x="1" width="20" height="20" relative="1" as="geometry">
            <mxPoint x="-27" y="7" as="offset" />
          </mxGeometry>
        </mxCell>
        <mxCell id="DC1aYd3tUmK3nC-rhCci-39" value="" style="endArrow=circle;html=1;rounded=0;exitX=0;exitY=0.5;exitDx=0;exitDy=0;endFill=0;" edge="1" parent="1" source="DC1aYd3tUmK3nC-rhCci-37">
          <mxGeometry width="50" height="50" relative="1" as="geometry">
            <mxPoint x="652" y="355" as="sourcePoint" />
            <mxPoint x="553" y="-90" as="targetPoint" />
          </mxGeometry>
        </mxCell>
        <mxCell id="DC1aYd3tUmK3nC-rhCci-40" value="" style="endArrow=halfCircle;html=1;rounded=0;exitX=1;exitY=0.5;exitDx=0;exitDy=0;endFill=0;" edge="1" parent="1" source="DC1aYd3tUmK3nC-rhCci-33">
          <mxGeometry width="50" height="50" relative="1" as="geometry">
            <mxPoint x="509" y="20" as="sourcePoint" />
            <mxPoint x="557" y="-90" as="targetPoint" />
          </mxGeometry>
        </mxCell>
        <mxCell id="DC1aYd3tUmK3nC-rhCci-41" value="&lt;b&gt;&amp;lt;&amp;lt;service&amp;gt;&amp;gt;&lt;/b&gt;&lt;br&gt;&lt;div&gt;&lt;b&gt;Authorizaiton&lt;/b&gt;&lt;/div&gt;" style="html=1;dropTarget=0;whiteSpace=wrap;" vertex="1" parent="1">
          <mxGeometry x="884" y="-132" width="180" height="90" as="geometry" />
        </mxCell>
        <mxCell id="DC1aYd3tUmK3nC-rhCci-42" value="" style="shape=module;jettyWidth=8;jettyHeight=4;" vertex="1" parent="DC1aYd3tUmK3nC-rhCci-41">
          <mxGeometry x="1" width="20" height="20" relative="1" as="geometry">
            <mxPoint x="-27" y="7" as="offset" />
          </mxGeometry>
        </mxCell>
        <mxCell id="DC1aYd3tUmK3nC-rhCci-43" value="" style="fontStyle=0;labelPosition=right;verticalLabelPosition=middle;align=left;verticalAlign=middle;spacingLeft=2;html=1;" vertex="1" parent="1">
          <mxGeometry x="-36" y="89" width="20" height="18" as="geometry" />
        </mxCell>
        <mxCell id="DC1aYd3tUmK3nC-rhCci-44" value="Rest API" style="text;html=1;align=center;verticalAlign=middle;resizable=0;points=[];autosize=1;strokeColor=none;fillColor=none;" vertex="1" parent="1">
          <mxGeometry x="203" y="48" width="65" height="26" as="geometry" />
        </mxCell>
        <mxCell id="DC1aYd3tUmK3nC-rhCci-45" value="https" style="text;html=1;align=center;verticalAlign=middle;whiteSpace=wrap;rounded=0;" vertex="1" parent="1">
          <mxGeometry x="-86" y="67" width="60" height="30" as="geometry" />
        </mxCell>
        <mxCell id="DC1aYd3tUmK3nC-rhCci-46" value="&lt;b&gt;PostgreDB&lt;/b&gt;" style="html=1;dropTarget=0;whiteSpace=wrap;" vertex="1" parent="1">
          <mxGeometry x="634" y="-337" width="180" height="90" as="geometry" />
        </mxCell>
        <mxCell id="DC1aYd3tUmK3nC-rhCci-47" value="" style="shape=module;jettyWidth=8;jettyHeight=4;" vertex="1" parent="DC1aYd3tUmK3nC-rhCci-46">
          <mxGeometry x="1" width="20" height="20" relative="1" as="geometry">
            <mxPoint x="-27" y="7" as="offset" />
          </mxGeometry>
        </mxCell>
        <mxCell id="DC1aYd3tUmK3nC-rhCci-48" value="" style="endArrow=circle;html=1;rounded=0;endFill=0;exitX=0.5;exitY=1;exitDx=0;exitDy=0;" edge="1" parent="1" source="DC1aYd3tUmK3nC-rhCci-46">
          <mxGeometry width="50" height="50" relative="1" as="geometry">
            <mxPoint x="429" y="-35" as="sourcePoint" />
            <mxPoint x="724" y="-204" as="targetPoint" />
          </mxGeometry>
        </mxCell>
        <mxCell id="DC1aYd3tUmK3nC-rhCci-49" value="" style="endArrow=halfCircle;html=1;rounded=0;exitX=0.5;exitY=0;exitDx=0;exitDy=0;endFill=0;" edge="1" parent="1" source="DC1aYd3tUmK3nC-rhCci-37">
          <mxGeometry width="50" height="50" relative="1" as="geometry">
            <mxPoint x="429" y="61" as="sourcePoint" />
            <mxPoint x="724" y="-203" as="targetPoint" />
          </mxGeometry>
        </mxCell>
        <mxCell id="DC1aYd3tUmK3nC-rhCci-50" value="" style="endArrow=none;html=1;rounded=0;exitX=0.5;exitY=0;exitDx=0;exitDy=0;edgeStyle=elbowEdgeStyle;elbow=vertical;" edge="1" parent="1" source="DC1aYd3tUmK3nC-rhCci-33">
          <mxGeometry width="50" height="50" relative="1" as="geometry">
            <mxPoint x="596" y="-218" as="sourcePoint" />
            <mxPoint x="724" y="-184" as="targetPoint" />
          </mxGeometry>
        </mxCell>
        <mxCell id="DC1aYd3tUmK3nC-rhCci-51" value="" style="endArrow=none;html=1;rounded=0;exitX=0.5;exitY=0;exitDx=0;exitDy=0;edgeStyle=elbowEdgeStyle;elbow=vertical;" edge="1" parent="1" source="DC1aYd3tUmK3nC-rhCci-41">
          <mxGeometry width="50" height="50" relative="1" as="geometry">
            <mxPoint x="596" y="-218" as="sourcePoint" />
            <mxPoint x="724" y="-187" as="targetPoint" />
          </mxGeometry>
        </mxCell>
        <mxCell id="DC1aYd3tUmK3nC-rhCci-52" value="" style="endArrow=none;html=1;rounded=0;exitX=0.75;exitY=0;exitDx=0;exitDy=0;edgeStyle=orthogonalEdgeStyle;" edge="1" parent="1" source="DC1aYd3tUmK3nC-rhCci-27">
          <mxGeometry width="50" height="50" relative="1" as="geometry">
            <mxPoint x="596" y="-7" as="sourcePoint" />
            <mxPoint x="535" y="-90" as="targetPoint" />
          </mxGeometry>
        </mxCell>
        <mxCell id="DC1aYd3tUmK3nC-rhCci-53" value="" style="endArrow=halfCircle;html=1;rounded=0;exitX=1;exitY=0.5;exitDx=0;exitDy=0;endFill=0;" edge="1" parent="1" source="DC1aYd3tUmK3nC-rhCci-27">
          <mxGeometry width="50" height="50" relative="1" as="geometry">
            <mxPoint x="611" y="95.47" as="sourcePoint" />
            <mxPoint x="961" y="96" as="targetPoint" />
          </mxGeometry>
        </mxCell>
        <mxCell id="DC1aYd3tUmK3nC-rhCci-54" value="" style="endArrow=circle;html=1;rounded=0;exitX=0.5;exitY=1;exitDx=0;exitDy=0;endFill=0;" edge="1" parent="1">
          <mxGeometry width="50" height="50" relative="1" as="geometry">
            <mxPoint x="970" y="-42" as="sourcePoint" />
            <mxPoint x="970" y="104" as="targetPoint" />
          </mxGeometry>
        </mxCell>
        <mxCell id="DC1aYd3tUmK3nC-rhCci-55" value="https" style="text;html=1;align=center;verticalAlign=middle;whiteSpace=wrap;rounded=0;" vertex="1" parent="1">
          <mxGeometry x="277" y="59" width="60" height="30" as="geometry" />
        </mxCell>
        <mxCell id="DC1aYd3tUmK3nC-rhCci-56" value="Shared" style="text;html=1;align=center;verticalAlign=middle;resizable=0;points=[];autosize=1;strokeColor=none;fillColor=none;" vertex="1" parent="1">
          <mxGeometry x="299" y="-337" width="57" height="26" as="geometry" />
        </mxCell>
      </root>
    </mxGraphModel>
  </diagram>
</mxfile>
